<?xml version="1.0" encoding="utf-8"?>
<!-- Generator: Adobe Illustrator 18.0.0, SVG Export Plug-In . SVG Version: 6.00 Build 0)  -->
<!DOCTYPE svg PUBLIC "-//W3C//DTD SVG 1.1//EN" "http://www.w3.org/Graphics/SVG/1.1/DTD/svg11.dtd">
<svg version="1.1" id="Layer_1" xmlns="http://www.w3.org/2000/svg" xmlns:xlink="http://www.w3.org/1999/xlink" x="0px" y="0px"
	 viewBox="0 0 3500 300" enable-background="new 0 0 3500 300" xml:space="preserve">
<g>
	<rect opacity="0.19" fill="#010101" width="3500" height="300"/>
	<polygon fill="#010101" points="3500,217.9 3469.3,217.9 3469.3,207.5 3435.7,207.5 3435.7,217.4 3396.6,217.4 3394.3,217.4 
		3394.3,269.3 3382.4,269.3 3382.4,165.6 3385.7,151.8 3382.4,151.8 3382.4,137 3364.6,60.9 3346.8,137 3346.8,151.8 3343.5,151.8 
		3346.8,165.6 3346.8,256.4 3312.2,256.4 3312.2,206.1 3290.5,206.1 3290.5,216.9 3219.4,216.9 3219.4,265.3 3201.6,265.3 
		3201.6,176.9 3188.7,165.6 3140.3,165.6 3140.3,228.8 3126.5,228.8 3126.5,76.7 3084,68.8 3064.2,78.7 3064.2,99.4 3054.3,99.4 
		3054.3,111.3 3044.4,111.3 3044.4,123.1 3032.6,123.1 3032.6,136 3025.7,136 3025.7,285.1 2992.4,285.1 2992.4,214.3 2977.8,214.3 
		2977.8,178.4 2932.5,178.4 2932.5,247.9 2918.9,247.9 2918.9,205.4 2866.5,205.4 2866.5,209.7 2835.8,209.7 2835.8,272.3 
		2829.8,272.3 2829.8,155.1 2809.1,138.6 2809.1,102.1 2781.4,78.2 2779.9,34.1 2778.9,78.2 2753.7,102.1 2753.7,138.6 
		2733.1,155.1 2733.1,216.6 2692.3,216.6 2692.3,194.6 2683.2,194.6 2683.2,191.9 2673.7,191.9 2673.7,194 2670.6,194 2670.6,180.7 
		2628.9,180.7 2628.9,240.9 2586.1,240.9 2586.1,126.4 2529.2,126.4 2529.2,206.7 2503.5,206.7 2503.5,190.9 2442.1,190.9 
		2442.1,200.2 2430,200.2 2430,230.4 2421.9,230.4 2421.9,164.2 2417.9,161.6 2388.9,161.6 2388.9,159.7 2379.1,159.7 2379.1,201.8 
		2373,201.8 2373,106.8 2363.1,106.8 2363.1,89.1 2352.7,89.1 2352.7,72.3 2271.7,72.3 2271.7,89.1 2261.3,89.1 2261.3,106.8 
		2251.4,106.8 2251.4,277.2 2247.5,279.7 2237.6,279.7 2237.6,224.8 2212.4,224.8 2212.4,232.7 2153.1,232.7 2153.1,260.9 
		2138.3,260.9 2138.3,134 2118,134 2118,142.4 2108.1,142.4 2108.1,233.2 2101.7,233.2 2101.7,190.3 2098.7,190.3 2098.7,184.1 
		2080,184.1 2080,189.8 2029.6,189.8 2029.6,261.4 2012.3,261.4 2012.3,60.9 1995.5,69.8 1995.5,23.4 1992.7,23.4 1992.7,70.8 
		1945.5,93.2 1945.5,217.9 1879.7,217.9 1879.7,188.6 1883.1,188.6 1883.1,181.4 1807.2,181.4 1807.2,188.6 1810.5,188.6 
		1810.5,211.5 1784.8,211.5 1784.8,196.3 1771,196.3 1771,175.2 1690.9,175.2 1690.9,197.3 1673.1,197.3 1673.1,252.5 1659.6,263.7 
		1631,263.7 1631,183.4 1538.7,134.2 1492.3,134.2 1492.3,154.7 1469.6,154.7 1469.6,193.6 1441.2,193.6 1441.2,99.2 1430,99.2 
		1430,71.6 1422.1,71.6 1422.1,59.4 1417.2,59.4 1417.2,52.3 1410.3,52.3 1410.3,42.6 1317.4,42.6 1317.4,52.3 1310.5,52.3 
		1310.5,59.4 1305.5,59.4 1305.5,71.6 1297.6,71.6 1297.6,99.2 1286.5,99.2 1286.5,162.1 1261,162.1 1261,115.4 1265.2,115.4 
		1265.2,110.5 1259.3,110.5 1225.4,58.3 1191.6,110.5 1185.6,110.5 1185.6,115.5 1189.8,115.5 1189.8,119.1 1189.8,253 1172.3,253 
		1172.3,224.2 1124.4,224.2 1124.4,218.3 1079.6,218.3 1079.6,224.2 1071.4,224.2 1071.4,124.2 1064.2,124.2 1064.2,110.5 
		1047.9,110.5 1047.9,102.1 1012,102.1 1012,95.8 990.6,95.8 990.6,105.3 941.5,105.3 941.5,195.9 914.8,195.9 914.8,139 899.5,139 
		891.3,133.7 813.6,133.7 813.6,112.6 750.1,112.6 750.1,127.4 737.3,127.4 737.3,292 732.4,292 725.1,292 725.1,285.4 719.9,285.4 
		719.9,271.6 705.4,271.6 705.4,222.4 710,222.4 710,214.3 701.4,214.3 692.9,192.6 692.9,176.7 695.8,176.7 695.8,171 690.4,171 
		690.4,80.9 684.7,80.9 684.7,74 677.3,74 677.3,80.9 671.6,80.9 671.6,171 666.2,171 666.2,176.7 669.1,176.7 669.1,192.6 
		660.6,214.3 652,214.3 652,222.4 656.6,222.4 656.6,271.6 642.1,271.6 642.1,285.4 636.9,285.4 636.9,292 622.6,292 622.6,201.3 
		578.3,165 550.1,165 550.1,173.4 522,173.4 522,180.4 489.5,180.4 489.5,259.1 472.4,259.1 472.4,139.7 448.4,120 407.3,120 
		407.3,136.9 361.1,136.9 361.1,127.2 344,127.2 344,115.8 277.2,115.8 277.2,127.2 264.7,127.2 264.7,208.3 231.7,208.3 
		231.7,179.1 209.8,179.1 209.8,170.1 125.4,170.1 125.4,207.3 88.6,207.3 88.6,113.3 97,113.3 97,100.6 88.6,100.6 88.6,89.6 
		80.2,89.6 80.2,77.7 74.3,77.7 74.3,70.3 66.4,70.3 66.4,58.5 59,58.5 59,28.5 51.6,28.5 51.6,58.5 44.2,58.5 44.2,70.3 36.3,70.3 
		36.3,77.7 30.3,77.7 30.3,89.6 21.9,89.6 21.9,100.6 13.5,100.6 13.5,113.3 21.9,113.3 21.9,217.9 0,217.9 0,300 3500,300 	"/>
</g>
</svg>
